<?xml version="1.0" encoding="UTF-8" standalone="no"?><svg width="300" height="300" version="1.1"><rect style="opacity:1;color:#000000;fill:#9393ac;fill-opacity:1;fill-rule:nonzero;stroke:none;stroke-width:0.50000000000000000;marker:none;visibility:visible;display:inline;overflow:visible;enable-background:accumulate" width="300" height="300" x="0" y="0.0" /><g><path 
   style="opacity:0.2;fill:none;stroke:#000000;stroke-width: 2.0"
   d="m 26.0 , 150 a 1.0 1.0 1 0 1 2.0 ,0"/>
<path 
   style="opacity:0.8;fill:none;stroke:#000000;stroke-width: 2.0"
   d="m 26.0 , 150 a 1.0 1.0 1 0 0 2.0 ,0"/>
<path 
   style="opacity:0.2;fill:none;stroke:#000000;stroke-width: 2.0"
   d="m 28.0 , 150 a 1.0 1.0 1 0 1 2.0 ,0"/>
<path 
   style="opacity:0.8;fill:none;stroke:#000000;stroke-width: 2.0"
   d="m 28.0 , 150 a 1.0 1.0 1 0 0 2.0 ,0"/>
<path 
   style="opacity:0.2;fill:none;stroke:#000000;stroke-width: 2.0"
   d="m 30.0 , 150 a 1.0 1.0 1 0 1 2.0 ,0"/>
<path 
   style="opacity:0.8;fill:none;stroke:#000000;stroke-width: 2.0"
   d="m 30.0 , 150 a 1.0 1.0 1 0 0 2.0 ,0"/>
<path 
   style="opacity:0.2;fill:none;stroke:#000000;stroke-width: 2.0"
   d="m 32.0 , 150 a 1.0 1.0 1 0 1 2.0 ,0"/>
<path 
   style="opacity:0.8;fill:none;stroke:#000000;stroke-width: 2.0"
   d="m 32.0 , 150 a 1.0 1.0 1 0 0 2.0 ,0"/>
<path 
   style="opacity:0.2;fill:none;stroke:#000000;stroke-width: 2.0"
   d="m 34.0 , 150 a 1.0 1.0 1 0 1 2.0 ,0"/>
<path 
   style="opacity:0.8;fill:none;stroke:#000000;stroke-width: 2.0"
   d="m 34.0 , 150 a 1.0 1.0 1 0 0 2.0 ,0"/>
<path 
   style="opacity:0.2;fill:none;stroke:#000000;stroke-width: 2.0"
   d="m 36.0 , 150 a 1.0 1.0 1 0 1 2.0 ,0"/>
<path 
   style="opacity:0.8;fill:none;stroke:#000000;stroke-width: 2.0"
   d="m 36.0 , 150 a 1.0 1.0 1 0 0 2.0 ,0"/>
<path 
   style="opacity:0.2;fill:none;stroke:#000000;stroke-width: 2.0"
   d="m 38.0 , 150 a 1.0 1.0 1 0 1 2.0 ,0"/>
<path 
   style="opacity:0.8;fill:none;stroke:#000000;stroke-width: 2.0"
   d="m 38.0 , 150 a 1.0 1.0 1 0 0 2.0 ,0"/>
<path 
   style="opacity:0.2;fill:none;stroke:#000000;stroke-width: 2.0"
   d="m 40.0 , 150 a 1.0 1.0 1 0 1 2.0 ,0"/>
<path 
   style="opacity:0.8;fill:none;stroke:#000000;stroke-width: 2.0"
   d="m 40.0 , 150 a 1.0 1.0 1 0 0 2.0 ,0"/>
<path 
   style="opacity:0.2;fill:none;stroke:#000000;stroke-width: 2.0"
   d="m 42.0 , 150 a 1.0 1.0 1 0 1 2.0 ,0"/>
<path 
   style="opacity:0.8;fill:none;stroke:#000000;stroke-width: 2.0"
   d="m 42.0 , 150 a 1.0 1.0 1 0 0 2.0 ,0"/>
<path 
   style="opacity:0.2;fill:none;stroke:#000000;stroke-width: 2.0"
   d="m 44.0 , 150 a 1.0 1.0 1 0 1 2.0 ,0"/>
<path 
   style="opacity:0.8;fill:none;stroke:#000000;stroke-width: 2.0"
   d="m 44.0 , 150 a 1.0 1.0 1 0 0 2.0 ,0"/>
<path 
   style="opacity:0.2;fill:none;stroke:#000000;stroke-width: 2.0"
   d="m 46.0 , 150 a 1.0 1.0 1 0 1 2.0 ,0"/>
<path 
   style="opacity:0.8;fill:none;stroke:#000000;stroke-width: 2.0"
   d="m 46.0 , 150 a 1.0 1.0 1 0 0 2.0 ,0"/>
<path 
   style="opacity:0.2;fill:none;stroke:#000000;stroke-width: 2.0"
   d="m 48.0 , 150 a 9.0 9.0 1 0 1 18.0 ,0"/>
<path 
   style="opacity:0.8;fill:none;stroke:#000000;stroke-width: 2.0"
   d="m 48.0 , 150 a 9.0 9.0 1 0 0 18.0 ,0"/>
<path 
   style="opacity:0.2;fill:none;stroke:#000000;stroke-width: 2.0"
   d="m 66.0 , 150 a 1.0 1.0 1 0 1 2.0 ,0"/>
<path 
   style="opacity:0.8;fill:none;stroke:#000000;stroke-width: 2.0"
   d="m 66.0 , 150 a 1.0 1.0 1 0 0 2.0 ,0"/>
<path 
   style="opacity:0.2;fill:none;stroke:#000000;stroke-width: 2.0"
   d="m 68.0 , 150 a 1.0 1.0 1 0 1 2.0 ,0"/>
<path 
   style="opacity:0.8;fill:none;stroke:#000000;stroke-width: 2.0"
   d="m 68.0 , 150 a 1.0 1.0 1 0 0 2.0 ,0"/>
<path 
   style="opacity:0.2;fill:none;stroke:#000000;stroke-width: 2.0"
   d="m 70.0 , 150 a 1.0 1.0 1 0 1 2.0 ,0"/>
<path 
   style="opacity:0.8;fill:none;stroke:#000000;stroke-width: 2.0"
   d="m 70.0 , 150 a 1.0 1.0 1 0 0 2.0 ,0"/>
<path 
   style="opacity:0.2;fill:none;stroke:#000000;stroke-width: 2.0"
   d="m 72.0 , 150 a 1.0 1.0 1 0 1 2.0 ,0"/>
<path 
   style="opacity:0.8;fill:none;stroke:#000000;stroke-width: 2.0"
   d="m 72.0 , 150 a 1.0 1.0 1 0 0 2.0 ,0"/>
<path 
   style="opacity:0.2;fill:none;stroke:#000000;stroke-width: 2.0"
   d="m 74.0 , 150 a 1.0 1.0 1 0 1 2.0 ,0"/>
<path 
   style="opacity:0.8;fill:none;stroke:#000000;stroke-width: 2.0"
   d="m 74.0 , 150 a 1.0 1.0 1 0 0 2.0 ,0"/>
<path 
   style="opacity:0.2;fill:none;stroke:#000000;stroke-width: 2.0"
   d="m 76.0 , 150 a 1.0 1.0 1 0 1 2.0 ,0"/>
<path 
   style="opacity:0.8;fill:none;stroke:#000000;stroke-width: 2.0"
   d="m 76.0 , 150 a 1.0 1.0 1 0 0 2.0 ,0"/>
<path 
   style="opacity:0.2;fill:none;stroke:#000000;stroke-width: 2.0"
   d="m 78.0 , 150 a 1.0 1.0 1 0 1 2.0 ,0"/>
<path 
   style="opacity:0.8;fill:none;stroke:#000000;stroke-width: 2.0"
   d="m 78.0 , 150 a 1.0 1.0 1 0 0 2.0 ,0"/>
<path 
   style="opacity:0.2;fill:none;stroke:#000000;stroke-width: 2.0"
   d="m 80.0 , 150 a 73.5 73.5 1 0 1 147.0 ,0"/>
<path 
   style="opacity:0.8;fill:none;stroke:#000000;stroke-width: 2.0"
   d="m 80.0 , 150 a 73.5 73.5 1 0 0 147.0 ,0"/>
<path 
   style="opacity:0.2;fill:none;stroke:#000000;stroke-width: 2.0"
   d="m 227.0 , 150 a 1.0 1.0 1 0 1 2.0 ,0"/>
<path 
   style="opacity:0.8;fill:none;stroke:#000000;stroke-width: 2.0"
   d="m 227.0 , 150 a 1.0 1.0 1 0 0 2.0 ,0"/>
<path 
   style="opacity:0.2;fill:none;stroke:#000000;stroke-width: 2.0"
   d="m 229.0 , 150 a 1.0 1.0 1 0 1 2.0 ,0"/>
<path 
   style="opacity:0.8;fill:none;stroke:#000000;stroke-width: 2.0"
   d="m 229.0 , 150 a 1.0 1.0 1 0 0 2.0 ,0"/>
<path 
   style="opacity:0.2;fill:none;stroke:#000000;stroke-width: 2.0"
   d="m 231.0 , 150 a 1.0 1.0 1 0 1 2.0 ,0"/>
<path 
   style="opacity:0.8;fill:none;stroke:#000000;stroke-width: 2.0"
   d="m 231.0 , 150 a 1.0 1.0 1 0 0 2.0 ,0"/>
<path 
   style="opacity:0.2;fill:none;stroke:#000000;stroke-width: 2.0"
   d="m 233.0 , 150 a 1.0 1.0 1 0 1 2.0 ,0"/>
<path 
   style="opacity:0.8;fill:none;stroke:#000000;stroke-width: 2.0"
   d="m 233.0 , 150 a 1.0 1.0 1 0 0 2.0 ,0"/>
<path 
   style="opacity:0.2;fill:none;stroke:#000000;stroke-width: 2.0"
   d="m 235.0 , 150 a 1.0 1.0 1 0 1 2.0 ,0"/>
<path 
   style="opacity:0.8;fill:none;stroke:#000000;stroke-width: 2.0"
   d="m 235.0 , 150 a 1.0 1.0 1 0 0 2.0 ,0"/>
<path 
   style="opacity:0.2;fill:none;stroke:#000000;stroke-width: 2.0"
   d="m 237.0 , 150 a 1.0 1.0 1 0 1 2.0 ,0"/>
<path 
   style="opacity:0.8;fill:none;stroke:#000000;stroke-width: 2.0"
   d="m 237.0 , 150 a 1.0 1.0 1 0 0 2.0 ,0"/>
<path 
   style="opacity:0.2;fill:none;stroke:#000000;stroke-width: 2.0"
   d="m 239.0 , 150 a 1.0 1.0 1 0 1 2.0 ,0"/>
<path 
   style="opacity:0.8;fill:none;stroke:#000000;stroke-width: 2.0"
   d="m 239.0 , 150 a 1.0 1.0 1 0 0 2.0 ,0"/>
<path 
   style="opacity:0.2;fill:none;stroke:#000000;stroke-width: 2.0"
   d="m 241.0 , 150 a 1.0 1.0 1 0 1 2.0 ,0"/>
<path 
   style="opacity:0.8;fill:none;stroke:#000000;stroke-width: 2.0"
   d="m 241.0 , 150 a 1.0 1.0 1 0 0 2.0 ,0"/>
<path 
   style="opacity:0.2;fill:none;stroke:#000000;stroke-width: 2.0"
   d="m 243.0 , 150 a 1.0 1.0 1 0 1 2.0 ,0"/>
<path 
   style="opacity:0.8;fill:none;stroke:#000000;stroke-width: 2.0"
   d="m 243.0 , 150 a 1.0 1.0 1 0 0 2.0 ,0"/>
<path 
   style="opacity:0.2;fill:none;stroke:#000000;stroke-width: 2.0"
   d="m 245.0 , 150 a 1.0 1.0 1 0 1 2.0 ,0"/>
<path 
   style="opacity:0.8;fill:none;stroke:#000000;stroke-width: 2.0"
   d="m 245.0 , 150 a 1.0 1.0 1 0 0 2.0 ,0"/>
<path 
   style="opacity:0.2;fill:none;stroke:#000000;stroke-width: 2.0"
   d="m 247.0 , 150 a 1.0 1.0 1 0 1 2.0 ,0"/>
<path 
   style="opacity:0.8;fill:none;stroke:#000000;stroke-width: 2.0"
   d="m 247.0 , 150 a 1.0 1.0 1 0 0 2.0 ,0"/>
<path 
   style="opacity:0.2;fill:none;stroke:#000000;stroke-width: 2.0"
   d="m 249.0 , 150 a 1.0 1.0 1 0 1 2.0 ,0"/>
<path 
   style="opacity:0.8;fill:none;stroke:#000000;stroke-width: 2.0"
   d="m 249.0 , 150 a 1.0 1.0 1 0 0 2.0 ,0"/>
<path 
   style="opacity:0.2;fill:none;stroke:#000000;stroke-width: 2.0"
   d="m 251.0 , 150 a 1.0 1.0 1 0 1 2.0 ,0"/>
<path 
   style="opacity:0.8;fill:none;stroke:#000000;stroke-width: 2.0"
   d="m 251.0 , 150 a 1.0 1.0 1 0 0 2.0 ,0"/>
<path 
   style="opacity:0.2;fill:none;stroke:#000000;stroke-width: 2.0"
   d="m 253.0 , 150 a 1.0 1.0 1 0 1 2.0 ,0"/>
<path 
   style="opacity:0.8;fill:none;stroke:#000000;stroke-width: 2.0"
   d="m 253.0 , 150 a 1.0 1.0 1 0 0 2.0 ,0"/>
<path 
   style="opacity:0.2;fill:none;stroke:#000000;stroke-width: 2.0"
   d="m 255.0 , 150 a 1.0 1.0 1 0 1 2.0 ,0"/>
<path 
   style="opacity:0.8;fill:none;stroke:#000000;stroke-width: 2.0"
   d="m 255.0 , 150 a 1.0 1.0 1 0 0 2.0 ,0"/>
<path 
   style="opacity:0.2;fill:none;stroke:#000000;stroke-width: 2.0"
   d="m 257.0 , 150 a 1.0 1.0 1 0 1 2.0 ,0"/>
<path 
   style="opacity:0.8;fill:none;stroke:#000000;stroke-width: 2.0"
   d="m 257.0 , 150 a 1.0 1.0 1 0 0 2.0 ,0"/>
<path 
   style="opacity:0.2;fill:none;stroke:#000000;stroke-width: 2.0"
   d="m 259.0 , 150 a 1.0 1.0 1 0 1 2.0 ,0"/>
<path 
   style="opacity:0.8;fill:none;stroke:#000000;stroke-width: 2.0"
   d="m 259.0 , 150 a 1.0 1.0 1 0 0 2.0 ,0"/>
<path 
   style="opacity:0.2;fill:none;stroke:#000000;stroke-width: 2.0"
   d="m 261.0 , 150 a 1.0 1.0 1 0 1 2.0 ,0"/>
<path 
   style="opacity:0.8;fill:none;stroke:#000000;stroke-width: 2.0"
   d="m 261.0 , 150 a 1.0 1.0 1 0 0 2.0 ,0"/>
<path 
   style="opacity:0.2;fill:none;stroke:#000000;stroke-width: 2.0"
   d="m 263.0 , 150 a 1.0 1.0 1 0 1 2.0 ,0"/>
<path 
   style="opacity:0.8;fill:none;stroke:#000000;stroke-width: 2.0"
   d="m 263.0 , 150 a 1.0 1.0 1 0 0 2.0 ,0"/>
<path 
   style="opacity:0.2;fill:none;stroke:#000000;stroke-width: 2.0"
   d="m 265.0 , 150 a 1.0 1.0 1 0 1 2.0 ,0"/>
<path 
   style="opacity:0.8;fill:none;stroke:#000000;stroke-width: 2.0"
   d="m 265.0 , 150 a 1.0 1.0 1 0 0 2.0 ,0"/>
<path 
   style="opacity:0.2;fill:none;stroke:#000000;stroke-width: 2.0"
   d="m 267.0 , 150 a 1.0 1.0 1 0 1 2.0 ,0"/>
<path 
   style="opacity:0.8;fill:none;stroke:#000000;stroke-width: 2.0"
   d="m 267.0 , 150 a 1.0 1.0 1 0 0 2.0 ,0"/>
<path 
   style="opacity:0.2;fill:none;stroke:#000000;stroke-width: 5.5"
   d="m 51.75 , 150 a 3.5 3.5 1 0 1 7.0 ,0"/>
<path 
   style="opacity:0.8;fill:none;stroke:#000000;stroke-width: 5.5"
   d="m 51.75 , 150 a 3.5 3.5 1 0 0 7.0 ,0"/>
<path 
   style="opacity:0.2;fill:none;stroke:#000000;stroke-width: 5.5"
   d="m 83.75 , 150 a 3.5 3.5 1 0 1 7.0 ,0"/>
<path 
   style="opacity:0.8;fill:none;stroke:#000000;stroke-width: 5.5"
   d="m 83.75 , 150 a 3.5 3.5 1 0 0 7.0 ,0"/>
<path 
   style="opacity:0.2;fill:none;stroke:#000000;stroke-width: 16.0"
   d="m 57.0 , 150 a 16.0 16.0 1 0 1 32.0 ,0"/>
<path 
   style="opacity:0.8;fill:none;stroke:#000000;stroke-width: 16.0"
   d="m 57.0 , 150 a 16.0 16.0 1 0 0 32.0 ,0"/>
<path 
   style="opacity:0.2;fill:none;stroke:#000000;stroke-width: 16.0"
   d="m 89.0 , 150 a 49.5 49.5 1 0 1 99.0 ,0"/>
<path 
   style="opacity:0.8;fill:none;stroke:#000000;stroke-width: 16.0"
   d="m 89.0 , 150 a 49.5 49.5 1 0 0 99.0 ,0"/>
<path 
   style="opacity:0.2;fill:none;stroke:#000000;stroke-width: 5.5"
   d="m 182.75 , 150 a 3.5 3.5 1 0 1 7.0 ,0"/>
<path 
   style="opacity:0.8;fill:none;stroke:#000000;stroke-width: 5.5"
   d="m 182.75 , 150 a 3.5 3.5 1 0 0 7.0 ,0"/>
<path 
   style="opacity:0.2;fill:none;stroke:#000000;stroke-width: 2.0"
   d="m 188.0 , 150 a 4.5 4.5 1 0 1 9.0 ,0"/>
<path 
   style="opacity:0.8;fill:none;stroke:#000000;stroke-width: 2.0"
   d="m 188.0 , 150 a 4.5 4.5 1 0 0 9.0 ,0"/>
<path 
   style="opacity:0.2;fill:none;stroke:#000000;stroke-width: 5.5"
   d="m 189.75 , 150 a 8.5 8.5 1 0 1 17.0 ,0"/>
<path 
   style="opacity:0.8;fill:none;stroke:#000000;stroke-width: 5.5"
   d="m 189.75 , 150 a 8.5 8.5 1 0 0 17.0 ,0"/>
<path 
   style="opacity:0.2;fill:none;stroke:#000000;stroke-width: 1.5"
   d="m 186.25 , 150 a 8.5 8.5 1 0 1 17.0 ,0"/>
<path 
   style="opacity:0.8;fill:none;stroke:#000000;stroke-width: 1.5"
   d="m 186.25 , 150 a 8.5 8.5 1 0 0 17.0 ,0"/>
<path 
   style="opacity:0.2;fill:none;stroke:#000000;stroke-width: 3.5"
   d="m 194.25 , 150 a 8.5 8.5 1 0 1 17.0 ,0"/>
<path 
   style="opacity:0.8;fill:none;stroke:#000000;stroke-width: 3.5"
   d="m 194.25 , 150 a 8.5 8.5 1 0 0 17.0 ,0"/>
<path 
   style="opacity:0.2;fill:none;stroke:#000000;stroke-width: 5.5"
   d="m 206.75 , 150 a 19.0 19.0 1 0 1 38.0 ,0"/>
<path 
   style="opacity:0.8;fill:none;stroke:#000000;stroke-width: 5.5"
   d="m 206.75 , 150 a 19.0 19.0 1 0 0 38.0 ,0"/>
<path 
   style="opacity:0.2;fill:none;stroke:#000000;stroke-width: 12.0"
   d="m 248.0 , 150 a 6.0 6.0 1 0 1 12.0 ,0"/>
<path 
   style="opacity:0.8;fill:none;stroke:#000000;stroke-width: 12.0"
   d="m 248.0 , 150 a 6.0 6.0 1 0 0 12.0 ,0"/>
<path 
   style="opacity:0.2;fill:none;stroke:#000000;stroke-width: 3.0"
   d="m 98.5 , 150 a 1.5 1.5 1 0 1 3.0 ,0"/>
<path 
   style="opacity:0.8;fill:none;stroke:#000000;stroke-width: 3.0"
   d="m 98.5 , 150 a 1.5 1.5 1 0 0 3.0 ,0"/>
<path 
   style="opacity:0.2;fill:none;stroke:#000000;stroke-width: 3.0"
   d="m 101.5 , 150 a 1.5 1.5 1 0 1 3.0 ,0"/>
<path 
   style="opacity:0.8;fill:none;stroke:#000000;stroke-width: 3.0"
   d="m 101.5 , 150 a 1.5 1.5 1 0 0 3.0 ,0"/>
<path 
   style="opacity:0.2;fill:none;stroke:#000000;stroke-width: 3.0"
   d="m 104.5 , 150 a 1.5 1.5 1 0 1 3.0 ,0"/>
<path 
   style="opacity:0.8;fill:none;stroke:#000000;stroke-width: 3.0"
   d="m 104.5 , 150 a 1.5 1.5 1 0 0 3.0 ,0"/>
<path 
   style="opacity:0.2;fill:none;stroke:#000000;stroke-width: 1.5"
   d="m 97.75 , 150 a 1.5 1.5 1 0 1 3.0 ,0"/>
<path 
   style="opacity:0.8;fill:none;stroke:#000000;stroke-width: 1.5"
   d="m 97.75 , 150 a 1.5 1.5 1 0 0 3.0 ,0"/>
<path 
   style="opacity:0.2;fill:none;stroke:#000000;stroke-width: 1.5"
   d="m 100.75 , 150 a 1.5 1.5 1 0 1 3.0 ,0"/>
<path 
   style="opacity:0.8;fill:none;stroke:#000000;stroke-width: 1.5"
   d="m 100.75 , 150 a 1.5 1.5 1 0 0 3.0 ,0"/>
<path 
   style="opacity:0.2;fill:none;stroke:#000000;stroke-width: 1.5"
   d="m 103.75 , 150 a 1.5 1.5 1 0 1 3.0 ,0"/>
<path 
   style="opacity:0.8;fill:none;stroke:#000000;stroke-width: 1.5"
   d="m 103.75 , 150 a 1.5 1.5 1 0 0 3.0 ,0"/>
<path 
   style="opacity:0.2;fill:none;stroke:#000000;stroke-width: 1.5"
   d="m 99.25 , 150 a 1.5 1.5 1 0 1 3.0 ,0"/>
<path 
   style="opacity:0.8;fill:none;stroke:#000000;stroke-width: 1.5"
   d="m 99.25 , 150 a 1.5 1.5 1 0 0 3.0 ,0"/>
<path 
   style="opacity:0.2;fill:none;stroke:#000000;stroke-width: 1.5"
   d="m 105.25 , 150 a 1.5 1.5 1 0 1 3.0 ,0"/>
<path 
   style="opacity:0.8;fill:none;stroke:#000000;stroke-width: 1.5"
   d="m 105.25 , 150 a 1.5 1.5 1 0 0 3.0 ,0"/>
<path 
   style="opacity:0.2;fill:none;stroke:#000000;stroke-width: 3.0"
   d="m 213.5 , 150 a 1.5 1.5 1 0 1 3.0 ,0"/>
<path 
   style="opacity:0.8;fill:none;stroke:#000000;stroke-width: 3.0"
   d="m 213.5 , 150 a 1.5 1.5 1 0 0 3.0 ,0"/>
<path 
   style="opacity:0.2;fill:none;stroke:#000000;stroke-width: 3.0"
   d="m 216.5 , 150 a 1.5 1.5 1 0 1 3.0 ,0"/>
<path 
   style="opacity:0.8;fill:none;stroke:#000000;stroke-width: 3.0"
   d="m 216.5 , 150 a 1.5 1.5 1 0 0 3.0 ,0"/>
<path 
   style="opacity:0.2;fill:none;stroke:#000000;stroke-width: 3.0"
   d="m 219.5 , 150 a 1.5 1.5 1 0 1 3.0 ,0"/>
<path 
   style="opacity:0.8;fill:none;stroke:#000000;stroke-width: 3.0"
   d="m 219.5 , 150 a 1.5 1.5 1 0 0 3.0 ,0"/>
<path 
   style="opacity:0.2;fill:none;stroke:#000000;stroke-width: 1.5"
   d="m 212.75 , 150 a 1.5 1.5 1 0 1 3.0 ,0"/>
<path 
   style="opacity:0.8;fill:none;stroke:#000000;stroke-width: 1.5"
   d="m 212.75 , 150 a 1.5 1.5 1 0 0 3.0 ,0"/>
<path 
   style="opacity:0.2;fill:none;stroke:#000000;stroke-width: 1.5"
   d="m 215.75 , 150 a 1.5 1.5 1 0 1 3.0 ,0"/>
<path 
   style="opacity:0.8;fill:none;stroke:#000000;stroke-width: 1.5"
   d="m 215.75 , 150 a 1.5 1.5 1 0 0 3.0 ,0"/>
<path 
   style="opacity:0.2;fill:none;stroke:#000000;stroke-width: 1.5"
   d="m 218.75 , 150 a 1.5 1.5 1 0 1 3.0 ,0"/>
<path 
   style="opacity:0.8;fill:none;stroke:#000000;stroke-width: 1.5"
   d="m 218.75 , 150 a 1.5 1.5 1 0 0 3.0 ,0"/>
<path 
   style="opacity:0.2;fill:none;stroke:#000000;stroke-width: 1.5"
   d="m 214.25 , 150 a 1.5 1.5 1 0 1 3.0 ,0"/>
<path 
   style="opacity:0.8;fill:none;stroke:#000000;stroke-width: 1.5"
   d="m 214.25 , 150 a 1.5 1.5 1 0 0 3.0 ,0"/>
<path 
   style="opacity:0.2;fill:none;stroke:#000000;stroke-width: 1.5"
   d="m 220.25 , 150 a 1.5 1.5 1 0 1 3.0 ,0"/>
<path 
   style="opacity:0.8;fill:none;stroke:#000000;stroke-width: 1.5"
   d="m 220.25 , 150 a 1.5 1.5 1 0 0 3.0 ,0"/>
<path 
   style="opacity:0.2;fill:none;stroke:#000000;stroke-width: 12.0"
   d="m 103.0 , 150 a 57.5 57.5 1 0 1 115.0 ,0"/>
<path 
   style="opacity:0.8;fill:none;stroke:#000000;stroke-width: 12.0"
   d="m 103.0 , 150 a 57.5 57.5 1 0 0 115.0 ,0"/>
<path 
   style="opacity:0.2;fill:none;stroke:#000000;stroke-width: 1.5"
   d="m 114.75 , 150 a 0.75 0.75 1 0 1 1.5 ,0"/>
<path 
   style="opacity:0.8;fill:none;stroke:#000000;stroke-width: 1.5"
   d="m 114.75 , 150 a 0.75 0.75 1 0 0 1.5 ,0"/>
<path 
   style="opacity:0.2;fill:none;stroke:#000000;stroke-width: 1.5"
   d="m 116.25 , 150 a 3.75 3.75 1 0 1 7.5 ,0"/>
<path 
   style="opacity:0.8;fill:none;stroke:#000000;stroke-width: 1.5"
   d="m 116.25 , 150 a 3.75 3.75 1 0 0 7.5 ,0"/>
<path 
   style="opacity:0.2;fill:none;stroke:#000000;stroke-width: 1.5"
   d="m 117.75 , 150 a 0.75 0.75 1 0 1 1.5 ,0"/>
<path 
   style="opacity:0.8;fill:none;stroke:#000000;stroke-width: 1.5"
   d="m 117.75 , 150 a 0.75 0.75 1 0 0 1.5 ,0"/>
<path 
   style="opacity:0.2;fill:none;stroke:#000000;stroke-width: 1.5"
   d="m 119.25 , 150 a 0.75 0.75 1 0 1 1.5 ,0"/>
<path 
   style="opacity:0.8;fill:none;stroke:#000000;stroke-width: 1.5"
   d="m 119.25 , 150 a 0.75 0.75 1 0 0 1.5 ,0"/>
<path 
   style="opacity:0.2;fill:none;stroke:#000000;stroke-width: 1.5"
   d="m 120.75 , 150 a 0.75 0.75 1 0 1 1.5 ,0"/>
<path 
   style="opacity:0.8;fill:none;stroke:#000000;stroke-width: 1.5"
   d="m 120.75 , 150 a 0.75 0.75 1 0 0 1.5 ,0"/>
<path 
   style="opacity:0.2;fill:none;stroke:#000000;stroke-width: 1.5"
   d="m 122.25 , 150 a 3.75 3.75 1 0 1 7.5 ,0"/>
<path 
   style="opacity:0.8;fill:none;stroke:#000000;stroke-width: 1.5"
   d="m 122.25 , 150 a 3.75 3.75 1 0 0 7.5 ,0"/>
<path 
   style="opacity:0.2;fill:none;stroke:#000000;stroke-width: 1.5"
   d="m 123.75 , 150 a 0.75 0.75 1 0 1 1.5 ,0"/>
<path 
   style="opacity:0.8;fill:none;stroke:#000000;stroke-width: 1.5"
   d="m 123.75 , 150 a 0.75 0.75 1 0 0 1.5 ,0"/>
<path 
   style="opacity:0.2;fill:none;stroke:#000000;stroke-width: 1.5"
   d="m 125.25 , 150 a 0.75 0.75 1 0 1 1.5 ,0"/>
<path 
   style="opacity:0.8;fill:none;stroke:#000000;stroke-width: 1.5"
   d="m 125.25 , 150 a 0.75 0.75 1 0 0 1.5 ,0"/>
<path 
   style="opacity:0.2;fill:none;stroke:#000000;stroke-width: 1.5"
   d="m 126.75 , 150 a 0.75 0.75 1 0 1 1.5 ,0"/>
<path 
   style="opacity:0.8;fill:none;stroke:#000000;stroke-width: 1.5"
   d="m 126.75 , 150 a 0.75 0.75 1 0 0 1.5 ,0"/>
<path 
   style="opacity:0.2;fill:none;stroke:#000000;stroke-width: 1.5"
   d="m 128.25 , 150 a 3.75 3.75 1 0 1 7.5 ,0"/>
<path 
   style="opacity:0.8;fill:none;stroke:#000000;stroke-width: 1.5"
   d="m 128.25 , 150 a 3.75 3.75 1 0 0 7.5 ,0"/>
<path 
   style="opacity:0.2;fill:none;stroke:#000000;stroke-width: 1.5"
   d="m 129.75 , 150 a 0.75 0.75 1 0 1 1.5 ,0"/>
<path 
   style="opacity:0.8;fill:none;stroke:#000000;stroke-width: 1.5"
   d="m 129.75 , 150 a 0.75 0.75 1 0 0 1.5 ,0"/>
<path 
   style="opacity:0.2;fill:none;stroke:#000000;stroke-width: 1.5"
   d="m 131.25 , 150 a 0.75 0.75 1 0 1 1.5 ,0"/>
<path 
   style="opacity:0.8;fill:none;stroke:#000000;stroke-width: 1.5"
   d="m 131.25 , 150 a 0.75 0.75 1 0 0 1.5 ,0"/>
<path 
   style="opacity:0.2;fill:none;stroke:#000000;stroke-width: 1.5"
   d="m 132.75 , 150 a 0.75 0.75 1 0 1 1.5 ,0"/>
<path 
   style="opacity:0.8;fill:none;stroke:#000000;stroke-width: 1.5"
   d="m 132.75 , 150 a 0.75 0.75 1 0 0 1.5 ,0"/>
<path 
   style="opacity:0.2;fill:none;stroke:#000000;stroke-width: 1.5"
   d="m 134.25 , 150 a 20.25 20.25 1 0 1 40.5 ,0"/>
<path 
   style="opacity:0.8;fill:none;stroke:#000000;stroke-width: 1.5"
   d="m 134.25 , 150 a 20.25 20.25 1 0 0 40.5 ,0"/>
<path 
   style="opacity:0.2;fill:none;stroke:#000000;stroke-width: 1.5"
   d="m 135.75 , 150 a 0.75 0.75 1 0 1 1.5 ,0"/>
<path 
   style="opacity:0.8;fill:none;stroke:#000000;stroke-width: 1.5"
   d="m 135.75 , 150 a 0.75 0.75 1 0 0 1.5 ,0"/>
<path 
   style="opacity:0.2;fill:none;stroke:#000000;stroke-width: 12.0"
   d="m 120.0 , 150 a 6.0 6.0 1 0 1 12.0 ,0"/>
<path 
   style="opacity:0.8;fill:none;stroke:#000000;stroke-width: 12.0"
   d="m 120.0 , 150 a 6.0 6.0 1 0 0 12.0 ,0"/>
<path 
   style="opacity:0.2;fill:none;stroke:#000000;stroke-width: 1.5"
   d="m 174.75 , 150 a 0.75 0.75 1 0 1 1.5 ,0"/>
<path 
   style="opacity:0.8;fill:none;stroke:#000000;stroke-width: 1.5"
   d="m 174.75 , 150 a 0.75 0.75 1 0 0 1.5 ,0"/>
<path 
   style="opacity:0.2;fill:none;stroke:#000000;stroke-width: 1.5"
   d="m 176.25 , 150 a 0.75 0.75 1 0 1 1.5 ,0"/>
<path 
   style="opacity:0.8;fill:none;stroke:#000000;stroke-width: 1.5"
   d="m 176.25 , 150 a 0.75 0.75 1 0 0 1.5 ,0"/>
<path 
   style="opacity:0.2;fill:none;stroke:#000000;stroke-width: 1.5"
   d="m 177.75 , 150 a 0.75 0.75 1 0 1 1.5 ,0"/>
<path 
   style="opacity:0.8;fill:none;stroke:#000000;stroke-width: 1.5"
   d="m 177.75 , 150 a 0.75 0.75 1 0 0 1.5 ,0"/></g> </svg>